<?xml version="1.0" encoding="iso-8859-1"?>
<!-- Uploaded to: SVG Repo, www.svgrepo.com, Generator: SVG Repo Mixer Tools -->
<svg height="800px" width="800px" version="1.1" id="Layer_1" xmlns="http://www.w3.org/2000/svg" xmlns:xlink="http://www.w3.org/1999/xlink" 
	 viewBox="0 0 512 512" xml:space="preserve">
<path style="fill:#FFC865;" d="M465.455,256h-128C363.16,256,384,235.16,384,209.455V46.545C384,20.84,363.16,0,337.455,0h-162.91
	C148.84,0,128,20.84,128,46.545v162.909C128,235.16,148.84,256,174.545,256h-128C20.84,256,0,276.84,0,302.545v162.91
	C0,491.16,20.84,512,46.545,512h162.909C235.16,512,256,491.16,256,465.455C256,491.16,276.84,512,302.545,512h162.91
	C491.16,512,512,491.16,512,465.455v-162.91C512,276.84,491.16,256,465.455,256z M256,302.545C256,276.84,235.16,256,209.455,256
	h93.09C276.84,256,256,276.84,256,302.545z"/>
<path style="fill:#9E3F51;" d="M512,302.545v162.91C512,491.16,491.16,512,465.455,512h-162.91C276.84,512,256,491.16,256,465.455
	C256,491.16,235.16,512,209.455,512H46.545C20.84,512,0,491.16,0,465.455v-162.91C0,276.84,20.84,256,46.545,256h162.909
	C235.16,256,256,276.84,256,302.545C256,276.84,276.84,256,302.545,256h162.91C491.16,256,512,276.84,512,302.545z"/>
<path style="fill:#627C78;" d="M46.545,512C20.84,512,0,491.16,0,465.455v-162.91C0,276.84,20.84,256,46.545,256h162.909
	C235.16,256,256,276.84,256,302.545v162.91C256,491.16,235.16,512,209.455,512H46.545z"/>
<path style="fill:#FF8365;" d="M442.948,381.057l-19.352,19.352l-31.368,31.368c-4.545,4.545-11.912,4.545-16.456,0l-31.368-31.368
	l-19.352-19.352c-11.099-11.099-11.368-29.535-0.059-40.421c10.961-10.554,28.404-10.427,39.209,0.38L384,360.813l19.798-19.798
	c10.807-10.807,28.248-10.933,39.209-0.38C454.315,351.522,454.048,369.958,442.948,381.057z"/>
<path style="fill:#FFC865;" d="M138.13,332.269l15.983,20.41l24.35,8.893c7.848,2.866,10.926,12.336,6.261,19.268l-14.472,21.507
	l-0.934,25.906c-0.301,8.35-8.357,14.202-16.391,11.908L128,433.046l-24.927,7.118c-8.034,2.294-16.09-3.558-16.391-11.908
	l-0.934-25.906l-14.472-21.507c-4.665-6.932-1.587-16.402,6.261-19.268l24.35-8.893l15.983-20.41
	C123.021,325.69,132.979,325.69,138.13,332.269z"/>
<path style="fill:#967A56;" d="M328.451,96.604c0,13.338-10.812,24.151-24.151,24.151c-0.759,0-1.509-0.04-2.251-0.108
	c1.459,4.606,2.251,9.51,2.251,14.599c0,26.676-21.625,48.301-48.301,48.301s-48.301-21.625-48.301-48.301
	c0-5.089,0.792-9.992,2.251-14.599c-0.741,0.069-1.491,0.108-2.251,0.108c-13.338,0-24.151-10.812-24.151-24.151
	s10.812-24.151,24.151-24.151c12.298,0,22.442,9.195,23.949,21.083c7.151-4.184,15.468-6.594,24.351-6.594
	c8.883,0,17.2,2.409,24.351,6.594c1.508-11.888,11.651-21.083,23.949-21.083C317.639,72.454,328.451,83.267,328.451,96.604z"/>
</svg>