<svg version="1.2" xmlns="http://www.w3.org/2000/svg" viewBox="0 0 642 209" width="642" height="209"><style>.a{fill:#0c132c}</style><path fill-rule="evenodd" class="a" d="m554 48l21 59.2 5 18 6-18 21-59.2h33l-55.1 154-35.6 7 14.7-41.7-43-119.3zm-421.8-48c34 0.2 67.6 28.5 67.6 69.6 0 0 0.2 11 0.2 24.1v2.6c0 2.8 0 5.7 0 8.6l-0.1 1.7c-0.1 11-0.4 21.4-1.2 26.7-4.7 31.4-28.2 53.2-60.6 58.7-29.2 5.7-46.5 9-52.1 10.1-1.4 0.3-5.7 0.9-9.9 1.3l-0.8 0.1c-2.7 0.3-5.2 0.5-6.9 0.5-35.6 0-67.9-26.7-68.4-69.6v-2.2q0-0.1 0-0.3v-1.1c0-5.2 0-15.3 0.1-25.6v-2.4-1.6c0-10.3 0.1-20.1 0.3-24.9 1.2-31.3 22.9-56.7 64.2-64.8 2-0.4 50.5-9.8 52.6-10.2 4.8-0.9 10.1-1.3 15-1.3zm165.8 15.9v32.1h30v29.1h-30v50.1c0 9.8 7.4 14 12 14 4.4 0 8.3-0.5 12.3-1.8l0.7-0.2 7 23.1c-3 2-12 7-29 7-17 0-34.6-13-35-35.1q-0.2-10.4-0.2-23.8v-3q0-13.1 0.2-28.8v-1.5h-21v-29.1h21v-25.8zm-142 20.6l-80 15.5v31.3l-32 6.2v77.9l80-15.5v-31.2l32-6.3zm312 8.5c28.1-0.2 49.4 22.2 50 50.2v0.9 71.2h-32v-66.2c-0.1-15-11-27.2-26-27.1-14.9 0.1-27.8 11.8-28 26.7v66.6h-32v-119.3h29l1.1 13.9c9.3-10.2 23-16.8 37.9-16.9zm-88 3v119.3h-32v-119.3zm-256 26v46.7l-48 9.3v-46.7zm256-74v31.2l-32 6.2v-31.2z"/></svg>