<svg version="1.2" xmlns="http://www.w3.org/2000/svg" viewBox="0 0 58 58" width="58" height="58"><style></style><path  d="m112.2 16.1c-8.7 0-15 5.7-15 14.2 0 8.6 7.1 14.3 15.8 14.3 5.2 0 9.9-2.2 12.7-5.6l-6.1-3.5c-1.6 1.7-4 2.7-6.7 2.7-3.8 0-7-2-8.2-5.1h22.1q0.3-1.4 0.3-2.8c0-8.5-6.3-14.2-14.9-14.2zm-7.5 11.4c1-3.1 3.6-5.1 7.5-5.1 3.7 0 6.4 2 7.4 5.1zm-1.8-20.1l-21.8 37.9-21.9-37.9h8.2l13.6 23.7 13.7-23.7zm-73.7-3.9l29.2 50.4h-58.3zm129.6 26.9c0 4.7 3.1 7.8 7.8 7.8 3.3 0 5.7-1.5 7-3.8l6.1 3.5c-2.6 4.2-7.2 6.7-13.1 6.7-8.6 0-14.9-5.6-14.9-14.2 0-8.6 6.3-14.2 14.9-14.2 5.8 0 10.5 2.5 13.1 6.6l-6.1 3.5c-1.2-2.4-3.7-3.8-7-3.8-4.7 0-7.8 3.1-7.8 7.9zm65-22.9v36.2h-7v-36.2zm-26.9 8.7c-8.6 0-14.9 5.6-14.9 14.2 0 8.6 7.1 14.2 15.8 14.2 5.2 0 9.8-2.1 12.7-5.5l-6.1-3.6c-1.6 1.7-4 2.7-6.7 2.7-3.8 0-7-2-8.2-5.1h22.1q0.3-1.4 0.3-2.7c0.1-8.6-6.3-14.2-15-14.2zm-7.4 11.4c1-3.2 3.6-5.2 7.4-5.2 3.9 0 6.5 2 7.5 5.2zm-40.1-10.6v7.6c-0.8-0.2-1.7-0.4-2.6-0.4-4.5 0-7.8 3.2-7.8 7.9v11.7h-7.1v-26.8h7.1v7.2c0-4 4.6-7.2 10.4-7.2z"/></svg>