<svg version="1.2" xmlns="http://www.w3.org/2000/svg" viewBox="0 0 400 110" width="400" height="110"><style>.a{fill:#05151f}.b{fill:#0f8fe1}</style><path class="a" d="m67 30.2h-27v11.1h13.3v42.9q0 2.6-0.7 4.3-0.7 1.6-2 2.7-1.2 1-3 1.4-1.7 0.5-3.7 0.5-0.4 0-1.5 0-0.9-0.1-2-0.2-1.1 0-2.2-0.1-1-0.2-1.6-0.3l-0.7 11q0.9 0.2 1.7 0.3 1 0.2 1.9 0.3 1.3 0.1 2.5 0.2 1.4 0 2.6 0 5.4 0 9.5-1.1 4.2-1.2 7-3.7 2.9-2.4 4.4-6.2 1.5-3.8 1.5-9.1zm-14.6-13.5q0 3.1 2.1 5.2 2.1 2 5.7 2 3.6 0 5.7-2 2.1-2 2.1-5.2 0-3.2-2.1-5.2-2.1-2-5.7-2-3.7 0-5.8 2.1-2 2.1-2 5.1zm26.8 87.7q4.1 0 7.1-1.4 3.1-1.3 5.2-3.3 2.1-2 3.4-4.4 1.4-2.3 2.3-4.3l26.8-60.8h-15l-12 31.1-2 5.2-1.5-5.3-12.1-31h-14.9l22.4 50.6-3.1 5.8q-0.6 1.1-1 1.7-0.4 0.6-1.3 1.7-0.9 1.2-2.2 2.2-1.2 1-2.8 1-0.8 0-2.1 0-1.3-0.1-2.1-0.1l-1.6 10.3q1.7 0.5 3.1 0.7 1.5 0.3 3.4 0.3zm50.5-67.8l-0.3-6.4h-11.7v52.9h12.3v-39.6q0.3-0.6 0.6-1.2 0.3-0.5 0.7-0.9 0.5-0.5 1.2-0.8 0.7-0.3 1.5-0.3 0.8 0 1.5 0.2 0.7 0.2 1.2 0.8 0.5 0.5 0.8 1.5 0.3 0.9 0.3 2.5v37.8h12v-39q0-0.6 0-0.9 0-0.4 0-0.5 0.2-0.5 0.5-0.9 0.4-0.4 0.8-0.8 0.6-0.3 1.2-0.5 0.6-0.2 1.4-0.2 0.7 0 1.4 0.2 0.7 0.2 1.3 0.8 0.5 0.5 0.8 1.5 0.3 1 0.3 2.5v37.8h12.4v-37.7q0-4.4-0.9-7.5-0.8-3-2.3-5-1.6-1.9-3.7-2.8-2.1-0.9-4.4-0.9-2 0-3.6 0.5-1.6 0.5-2.8 1.4-1.1 0.7-2 1.7-0.8 0.9-1.5 2.1-0.4-1.3-1-2.2-0.6-1-1.5-1.6-1-1-2.5-1.4-1.5-0.5-3.3-0.5-3.8 0-6.5 2-2.6 2-4.2 5.4zm74.2 46.5h13.8v-0.9q-1-2-1.6-4.8-0.5-2.7-0.5-7v-22.6q0-4.6-1.7-8.1-1.7-3.5-4.8-5.8-3-2.3-7.1-3.5-4.1-1.2-8.9-1.2-5.3 0-9.5 1.4-4.1 1.3-6.9 3.6-2.9 2.3-4.4 5.3-1.5 3.1-1.5 6.4h13.6q0-1.4 0.4-2.5 0.4-1.2 1.3-2 1-1 2.5-1.5 1.6-0.5 3.7-0.5 2.5 0 4.3 0.6 1.9 0.6 3.1 1.7 1.1 1.1 1.7 2.6 0.6 1.5 0.6 3.4v3.1h-7.6q-5.8 0-10.4 1.1-4.4 1-7.5 3-3.4 2.2-5.1 5.6-1.8 3.4-1.8 7.8 0 3.4 1.4 6.3 1.4 2.9 3.8 5 2.5 2.1 5.8 3.3 3.4 1.1 7.5 1.1 2.5 0 4.6-0.4 2.2-0.5 4-1.3 1.8-0.8 3.2-1.9 1.5-1.1 2.6-2.3 0.2 1.4 0.6 2.7 0.3 1.3 0.8 2.3zm-12.9-9.6q-1.9 0-3.4-0.4-1.4-0.5-2.4-1.3-1-0.8-1.5-2-0.5-1.2-0.5-2.6 0-1.8 0.7-3.3 0.7-1.6 2.1-2.7 1.4-1.1 3.7-1.7 2.2-0.6 5.4-0.6h6.9v9.1q-0.6 1-1.6 2-1 1-2.4 1.8-1.5 0.8-3.2 1.2-1.8 0.5-3.8 0.5zm57.9-44.3q-5.4 0-9.9 2.6-4.4 2.6-7.7 7.1l-0.1-1.2-0.5-7.5h-12.6v52.9h13.5v-31.8q1-2.2 2.4-3.9 1.4-1.7 3.4-2.7 1.6-1 3.7-1.4 2.2-0.5 4.8-0.5 2.6 0 5.4 0.4 2.8 0.3 5.5 0.9l2-13.5q-1.6-0.5-4.3-0.9-2.6-0.5-5.6-0.5zm15.8 37.7l6.1-5.7 15 21.9h16.6l-22.7-30.9 20-22h-16.3l-14.6 16-4.1 4.7v-42.8h-13.6v75h13.6zm82.9-9.8v-1q0-4.8-0.9-9-0.9-4.2-2.6-7.6-1.1-2.1-2.6-3.8-1.5-1.9-3.3-3.1-2.2-1.7-5.1-2.6-2.8-0.8-6.3-0.8-2.4 0-4.6 0.5-2.1 0.5-3.9 1.5-1.3 0.7-2.4 1.7-1.1 0.9-2.1 2v-26.9h-13.6v75h12.2l0.7-5.6q0.8 1 1.7 2 1 0.8 2 1.6 2 1.4 4.5 2.2 2.6 0.7 5.6 0.7 3.4 0 6.2-0.8 2.8-0.9 5.1-2.5 2.5-1.7 4.3-4.3 1.8-2.6 3-5.7 1-2.9 1.5-6.3 0.6-3.4 0.6-7.2zm-13.6-1v1q0 2-0.2 3.9-0.2 1.9-0.6 3.6-0.4 2.2-1.4 3.9-0.9 1.7-2.5 2.8-1 0.8-2.5 1.2-1.5 0.5-3.3 0.5-2.1 0-3.7-0.5-1.6-0.5-2.9-1.4-1-0.8-1.8-1.8-0.7-1-1.3-2.2v-21q0.4-1 1-1.8 0.5-0.8 1.2-1.4 1.3-1.3 3.1-2 1.9-0.7 4.3-0.7 1.8 0 3.3 0.4 1.4 0.4 2.5 1.3 1.7 1.3 2.5 2.9 0.9 1.5 1.4 3.5 0.5 1.8 0.7 3.7 0.2 2 0.2 4.1z"/><path class="b" d="m345.7 75.1q0 3.8 2.5 6.3 2.6 2.6 6.9 2.6 4.3 0 6.8-2.5 2.6-2.6 2.6-6.4 0-3.8-2.5-6.4-2.5-2.5-6.9-2.5-4.4 0-6.9 2.6-2.5 2.6-2.5 6.3z"/></svg>