<svg xmlns="http://www.w3.org/2000/svg" width="400" height="110" version="1.2">
  <path fill="#05151f" d="M67 30.2H40v11h13.3v43q0 2.6-.7 4.3-.7 1.6-2 2.7-1.2 1-3 1.4-1.7.5-3.7.5h-1.5l-2-.2h-2.2l-1.6-.4-.7 11 1.7.3 1.9.3 2.5.2h2.6q5.4 0 9.5-1.1 4.2-1.2 7-3.7 2.9-2.4 4.4-6.2 1.5-3.8 1.5-9.1zM52.4 16.7q0 3 2.1 5.2 2 2 5.7 2t5.7-2q2.1-2 2.1-5.2t-2-5.2q-2.2-2-5.8-2-3.7 0-5.8 2.1-2 2-2 5.1zm26.8 87.7q4.1 0 7.1-1.4 3.1-1.3 5.2-3.3 2-2 3.4-4.4 1.4-2.3 2.3-4.3L124 30.2h-15l-12 31-2 5.3-1.5-5.3-12-31h-15l22.4 50.6-3 5.8-1 1.7-1.4 1.7q-1 1.2-2.2 2.2-1.2 1-2.8 1h-2l-2.2-.1-1.6 10.3q1.7.5 3.1.7 1.5.3 3.4.3zm50.5-67.8l-.3-6.4h-11.7v52.9H130V43.5l.6-1.2.7-.9q.5-.5 1.2-.8.7-.3 1.5-.3t1.5.2q.7.2 1.2.8.5.5.8 1.5.3 1 .3 2.5V83h12V42.7l.5-1 .8-.7 1.2-.5q.6-.2 1.4-.2l1.4.2q.7.2 1.3.8.5.5.8 1.5.3 1 .3 2.5V83h12.4V45.4q0-4.4-.9-7.5-.8-3-2.3-5-1.6-1.9-3.7-2.8-2.1-.9-4.4-.9-2 0-3.6.5t-2.8 1.4q-1 .7-2 1.7l-1.5 2.1q-.4-1.3-1-2.2-.6-1-1.5-1.6-1-1-2.5-1.4-1.5-.5-3.3-.5-3.8 0-6.5 2-2.6 2-4.2 5.4zM203.9 83h13.8v-1q-1-2-1.6-4.7-.5-2.7-.5-7V47.8q0-4.6-1.7-8t-4.8-5.9q-3-2.3-7.1-3.5-4.1-1.2-8.9-1.2-5.3 0-9.5 1.4-4.1 1.3-7 3.6-2.8 2.3-4.3 5.3t-1.5 6.4h13.6q0-1.4.4-2.5.4-1.2 1.3-2 1-1 2.5-1.5 1.6-.5 3.7-.5 2.5 0 4.3.6 1.9.6 3 1.7 1.2 1 1.8 2.6.6 1.5.6 3.4v3h-7.6q-5.8 0-10.4 1.2-4.4 1-7.5 3-3.4 2.2-5.1 5.6-1.8 3.4-1.8 7.8 0 3.4 1.4 6.3t3.8 5q2.5 2 5.8 3.3 3.4 1.1 7.5 1.1 2.5 0 4.6-.4 2.2-.5 4-1.3 1.8-.8 3.2-1.9 1.5-1 2.6-2.3.2 1.4.6 2.7.3 1.3.8 2.3zM191 73.5q-1.9 0-3.4-.4-1.4-.5-2.4-1.3t-1.5-2q-.5-1.2-.5-2.6 0-1.8.7-3.3.7-1.6 2.1-2.7 1.4-1.1 3.7-1.7 2.2-.6 5.4-.6h6.9V68q-.6 1-1.6 2t-2.4 1.8q-1.5.8-3.2 1.2-1.8.5-3.8.5zm57.9-44.3q-5.4 0-9.9 2.6-4.4 2.6-7.7 7.1l-.1-1.2-.5-7.5H218v52.9h13.5V51.3q1-2.2 2.4-3.9 1.4-1.7 3.4-2.7 1.6-1 3.7-1.4 2.2-.5 4.8-.5 2.6 0 5.4.4 2.8.3 5.5.9l2-13.5q-1.6-.5-4.3-.9-2.6-.5-5.6-.5zM264.7 67l6-5.7 15 21.9h16.7l-22.7-31 20-22h-16.3l-14.6 16-4 4.8V8.1H251v75h13.6zm83-9.8v-1q0-4.8-1-9t-2.6-7.6q-1.1-2-2.6-3.8-1.5-2-3.3-3-2.2-1.8-5-2.7-3-.8-6.4-.8-2.4 0-4.6.5-2 .5-4 1.5-1.2.7-2.3 1.7l-2.1 2V8h-13.6v75h12.2l.7-5.6 1.7 2 2 1.6q2 1.4 4.5 2.2 2.6.7 5.6.7 3.4 0 6.2-.8 2.8-1 5.1-2.5 2.5-1.7 4.3-4.3 1.8-2.6 3-5.7 1-3 1.5-6.3.6-3.4.6-7.2zM334 56v1l-.2 4q-.2 2-.6 3.5-.4 2.2-1.4 4-1 1.6-2.5 2.7-1 .8-2.5 1.2-1.5.5-3.3.5-2.1 0-3.7-.5t-3-1.4q-1-.8-1.7-1.8l-1.3-2.2V46q.4-1 1-1.8.5-.8 1.2-1.4 1.3-1.3 3.1-2 1.9-.7 4.3-.7 1.8 0 3.3.4 1.4.4 2.5 1.3 1.7 1.3 2.5 3 1 1.4 1.4 3.4.5 1.8.7 3.7l.2 4z"/>
  <path fill="#0f8fe1" d="M345.7 75q0 4 2.5 6.4 2.6 2.6 7 2.6 4.2 0 6.7-2.5 2.6-2.6 2.6-6.4 0-3.8-2.5-6.4-2.5-2.5-6.9-2.5t-6.9 2.6q-2.5 2.6-2.5 6.3z"/>
</svg>
