<svg xmlns="http://www.w3.org/2000/svg" id="leetcode" viewBox="0 0 24 24">
  <path d="M22 14.4c0-.8-.6-1.4-1.3-1.4h-10c-.7 0-1.3.6-1.3 1.4s.6 1.3 1.3 1.3h10c.7 0 1.3-.6 1.3-1.3z"/>
  <path d="M3.5 18.2l4.3 4.3c1 1 2.3 1.5 3.8 1.5s2.8-.5 3.8-1.5L18 20c.5-.5.5-1.4 0-2-.6-.5-1.4-.5-2 0l-2.6 2.6c-.5.5-1 .7-1.8.7s-1.4-.2-1.8-.7l-4.3-4.3c-.5-.5-.7-1.2-.7-2s.2-1.2.7-1.7L9.8 8c.4-.5 1-.6 1.8-.6s1.3.2 1.8.6l2.7 2.6c.5.5 1.3.5 1.9 0 .5-.5.5-1.4 0-2l-2.6-2.5A5 5 0 0 0 13 4.8l2.4-2.5c.5-.5.5-1.4 0-1.9S14 0 13.5.4l-10 10c-1 1-1.5 2.4-1.5 4 0 1.4.5 2.8 1.5 3.8z"/>
</svg>
