<svg version="1.2" xmlns="http://www.w3.org/2000/svg" viewBox="0 0 160 160" width="160" height="160"><style>.a{fill:#05151f}.b{fill:#0f8fe1}</style><path class="a" d="m36 53.2h-27v11.1h13.3v42.9q0 2.6-0.7 4.3-0.7 1.6-2 2.7-1.2 1-3 1.4-1.7 0.5-3.7 0.5-0.4 0-1.5 0-0.9-0.1-2-0.2-1.1 0-2.2-0.1-1-0.2-1.6-0.3l-0.7 11q0.9 0.2 1.7 0.3 1 0.2 1.9 0.3 1.3 0.1 2.5 0.2 1.4 0 2.6 0 5.4 0 9.5-1.1 4.2-1.2 7-3.7 2.9-2.4 4.4-6.2 1.5-3.8 1.5-9.1zm-14.6-13.5q0 3.1 2.1 5.2 2.1 2 5.7 2 3.6 0 5.7-2 2.1-2 2.1-5.2 0-3.2-2.1-5.2-2.1-2-5.7-2-3.7 0-5.8 2.1-2 2.1-2 5.1zm27.3 19.9l-0.4-6.4h-11.6v52.9h12.3v-39.6q0.3-0.6 0.6-1.2 0.3-0.5 0.6-0.9 0.6-0.5 1.3-0.8 0.7-0.3 1.5-0.3 0.8 0 1.5 0.2 0.7 0.2 1.2 0.8 0.5 0.5 0.8 1.5 0.3 0.9 0.3 2.5v37.8h12v-39q0-0.6 0-0.9 0-0.4 0-0.5 0.2-0.5 0.5-0.9 0.4-0.4 0.8-0.8 0.6-0.3 1.1-0.5 0.7-0.2 1.5-0.2 0.7 0 1.4 0.2 0.7 0.2 1.2 0.8 0.6 0.5 0.9 1.5 0.3 1 0.3 2.5v37.8h12.4v-37.7q0-4.4-0.9-7.5-0.8-3-2.4-5-1.5-1.9-3.6-2.8-2.1-0.9-4.5-0.9-1.9 0-3.5 0.5-1.6 0.5-2.9 1.4-1 0.7-1.9 1.7-0.8 0.9-1.5 2.1-0.4-1.3-1-2.2-0.6-1-1.5-1.6-1-1-2.5-1.4-1.5-0.5-3.3-0.5-3.8 0-6.5 2-2.7 2-4.2 5.4zm88.8 20.6v-1.1q0-4.7-0.9-8.9-0.8-4.2-2.6-7.6-1.1-2.1-2.5-3.9-1.5-1.8-3.3-3-2.3-1.7-5.1-2.6-2.9-0.9-6.3-0.9-2.5 0-4.6 0.6-2.1 0.5-3.9 1.5-1.3 0.7-2.4 1.7-1.2 0.9-2.1 2v-26.9h-13.6v75h12.2l0.6-5.7q0.9 1.1 1.8 2 0.9 0.9 2 1.7 2 1.4 4.5 2.2 2.5 0.7 5.6 0.7 3.4 0 6.2-0.8 2.8-0.9 5-2.5 2.5-1.7 4.3-4.3 1.9-2.6 3-5.7 1-2.9 1.6-6.3 0.5-3.4 0.5-7.2zm-13.6-1.1v1.1q0 2-0.2 3.9-0.1 1.9-0.5 3.5-0.5 2.2-1.5 4-0.9 1.7-2.4 2.8-1.1 0.8-2.5 1.2-1.5 0.4-3.3 0.4-2.1 0-3.8-0.4-1.6-0.5-2.8-1.5-1-0.7-1.8-1.7-0.7-1-1.3-2.2v-21.1q0.4-0.9 0.9-1.7 0.6-0.8 1.2-1.4 1.3-1.4 3.2-2 1.8-0.7 4.3-0.7 1.8 0 3.2 0.4 1.4 0.4 2.6 1.2 1.7 1.4 2.5 3 0.9 1.5 1.4 3.5 0.4 1.7 0.6 3.7 0.2 1.9 0.2 4z"/><path class="b" d="m135.6 98.1q0 3.8 2.6 6.3 2.5 2.6 6.9 2.6 4.3 0 6.8-2.5 2.6-2.6 2.6-6.4 0-3.8-2.6-6.4-2.4-2.5-6.8-2.5-4.5 0-7 2.6-2.5 2.6-2.5 6.3z"/></svg>